<?xml version="1.0" encoding="UTF-8"?> <svg xmlns="http://www.w3.org/2000/svg" width="397" height="104" viewBox="0 0 397 104" fill="none"><path d="M1.84413 71.5228V70.3843C4.56641 69.5961 5.35676 67.5818 5.35676 60.4003V24.8432C5.35676 14.8592 3.51263 12.407 0 11.3561V10.2176H10.6257L33.5456 47.9641L56.0264 10.2176H65.9496V11.3561C62.4369 12.407 60.5928 14.8592 60.5928 24.8432V60.4003C60.5928 67.5818 60.5707 66.0491 60.5928 70.3843L60.5707 71.5228H53.3919V70.3843C53.3919 67.8737 53.3919 67.5818 53.3919 60.4003V17.3115L31.0867 54.8828H29.4182L6.93744 18.0121V56.8971C6.93744 66.8811 9.04501 69.3333 12.9089 70.3843V71.5228H1.84413Z" fill="black"></path><path d="M100.78 60.2268C99.4053 60.2268 98.6207 59.1674 98.6207 57.8933V45.8237C96.4902 54.0713 90.7172 60.5755 83.9134 60.5755C78.8277 60.5755 74.2919 57.558 74.2919 51.7915C74.2919 44.8178 81.5081 42.2028 89.6863 39.99L98.6207 37.6431C98.2771 31.1391 94.8407 28.1216 88.9992 28.1216C84.8757 28.1216 80.8896 29.9991 77.4532 34.0894L76.8347 33.553C80.752 28.7921 85.769 25.9088 91.7482 25.9088C100.064 25.9088 103.912 30.4014 103.912 37.9784V51.3891C103.912 56.8875 105.092 58.8321 107.223 59.4356V60.2268H100.78ZM79.4463 49.914C79.4463 54.2725 82.5389 56.6193 86.4564 56.6193C93.8098 56.6193 98.5519 47.5671 98.6207 40.5264V38.5149L89.9613 40.7947C84.8757 42.2028 79.3775 44.4155 79.4463 49.914Z" fill="black"></path><path d="M116.37 70.793V69.6545C119.005 68.8662 119.883 66.8519 119.883 59.6704V20.6102C119.883 13.4288 119.005 11.4145 116.37 10.6263V9.48773H136.919C150.443 9.48773 155.975 13.9543 155.975 21.0481C155.975 27.0035 152.111 32.4334 142.1 34.2726C156.414 34.9732 162.737 42.0671 162.825 50.6498C163 60.4587 155.624 70.793 134.285 70.793H116.37ZM127.084 61.8599C127.084 68.1656 127.874 69.4793 131.65 69.4793H135.075C149.389 69.4793 154.833 62.5606 154.833 52.8393C154.833 42.7677 149.213 35.4111 136.041 35.4111H127.084V61.8599ZM127.084 34.0974H135.251C143.944 34.0974 147.984 29.0178 147.984 22.6246C147.984 15.3555 142.803 10.8014 133.758 10.8014H127.084V34.0974Z" fill="black"></path><path d="M103.564 9.48773H116.37V10.6281H103.564V9.48773Z" fill="black"></path><path d="M103.198 20.0702C102.933 10.5631 102.716 10.3271 94.05 10.0351C102.716 9.74454 102.931 9.50704 103.198 0C103.462 9.50704 103.679 9.7431 112.345 10.0351C103.679 10.3271 103.464 10.5602 103.198 20.0702Z" fill="black"></path><path d="M200.299 71.1684C198.64 71.1684 197.809 70.2535 197.809 68.6732V53.7021C195.236 63.9322 188.264 72 180.046 72C173.903 72 168.424 68.2573 168.424 61.1045C168.424 52.4546 177.14 49.211 187.018 46.4661L197.809 43.5553C197.396 35.4875 193.244 31.7446 186.19 31.7446C181.208 31.7446 176.393 34.0735 172.243 39.147L171.496 38.4817C176.227 32.5764 182.287 29 189.508 29C199.554 29 204.202 34.5726 204.202 43.9709V60.6055C204.202 67.4255 204.95 69.3385 207.523 70.087V71.1684H200.299ZM174.65 58.7756C174.65 64.1819 178.385 67.093 183.118 67.093C191.998 67.093 197.726 55.8647 197.809 47.1317V44.6365L187.35 47.4642C181.208 49.211 174.567 51.9555 174.65 58.7756Z" fill="black"></path><path d="M223.989 102.613C217.315 102.613 209.675 99.7232 209.675 91.8411C209.675 86.3237 214.153 81.8571 221.266 77.5658C217.315 76.6024 214.856 74.7632 214.856 70.9973C214.856 67.7569 217.754 65.5674 221.266 63.2904C216.875 61.0133 213.538 56.9847 213.538 50.5039C213.538 41.3081 221.881 33.9514 230.926 33.9514C233.034 33.9514 235.317 34.2142 237.336 34.8272C238.215 33.6887 239.268 32.5502 240.41 31.6744C243.045 29.3098 246.206 27.7333 250.421 27.7333C253.143 27.7333 254.987 28.5215 254.987 29.8352C254.987 31.3241 253.143 34.3018 249.982 34.3018C247.787 34.3018 245.24 33.5135 241.288 32.2874C240.322 32.9881 239.356 34.039 238.478 35.2651C243.835 37.1919 248.226 41.4832 248.226 49.015C248.226 59.0866 238.127 65.4799 230.926 65.4799C228.204 65.4799 225.13 64.9544 222.408 63.8159C220.476 65.1296 219.246 66.0053 219.246 67.6693C219.334 70.034 222.232 71.4352 228.906 71.7856L239.971 72.4862C248.84 73.0117 254.021 74.2378 254.021 81.0689C254.021 91.0529 238.478 102.613 223.989 102.613ZM215.558 88.6007C215.558 94.9064 220.827 98.6723 228.994 98.6723C240.234 98.6723 250.597 91.666 250.597 84.7472C250.597 80.631 247.172 79.4049 239.883 78.967L227.589 78.354C225.833 78.2664 224.164 78.0912 222.583 77.8285C217.49 81.2441 215.558 84.8348 215.558 88.6007ZM219.949 46.6504C219.949 54.2698 224.515 64.0786 232.594 64.0786C239.093 64.0786 241.903 58.9114 241.903 52.9561C241.903 45.074 236.81 34.8272 228.818 35.2651C222.583 35.5279 219.949 40.5199 219.949 46.6504Z" fill="black"></path><path d="M274.19 73.0992C264.969 73.0992 260.754 67.2314 260.754 57.1599V40.9578C260.754 34.8272 259.612 33.9514 257.241 32.9005V31.9371L266.813 27.7333L267.604 28.3464V55.5834C267.604 65.5674 270.414 70.034 277.439 70.034C282.62 70.034 287.362 66.7935 291.314 62.5898V40.9578C291.314 34.8272 290.172 33.9514 287.801 32.9005V31.9371L297.373 27.7333L298.163 28.3464V61.1009C298.163 68.2824 298.954 70.2967 301.676 71.0849V72.2234H294.212C292.28 72.2234 291.314 71.2601 291.314 68.7203V64.2538C286.835 68.8954 280.776 73.0992 274.19 73.0992Z" fill="black"></path><path d="M325.533 73.0117C335.192 73.0117 346.345 66.0053 346.345 51.5548C346.345 37.2794 335.544 27.7333 323.25 27.7333C312.185 27.7333 305.774 34.9148 305.511 43.2348H339.847C340.022 44.5485 340.11 45.8622 340.11 47.2634C340.11 59.2618 332.646 67.4942 321.23 67.4942C314.468 67.4942 309.638 64.4289 305.599 59.8748L304.808 60.663C309.287 66.7935 316.136 73.0117 325.533 73.0117ZM339.583 42.0963H312.536C313.414 36.2285 318.156 29.3098 326.147 29.3098C333.612 29.2222 338.178 34.7397 339.583 42.0963Z" fill="black"></path><path d="M356.949 42.1109H339.569V43.2239H356.949V42.1109Z" fill="black"></path><path d="M66.9742 94.3298C57.3851 94.8412 53.2424 88.0716 53.3895 70.9364L60.5809 70.5527C60.4976 86.282 57.3851 94.8412 66.9742 94.3298C76.5633 93.8184 72.6663 78.1288 69.2408 78.3116C65.8151 78.4943 71.7344 91.4485 66.3829 89.0826C61.0315 86.7166 61.363 78.7318 69.2408 78.3116C83.6241 77.5444 76.5633 93.8184 66.9742 94.3298Z" fill="black"></path><path d="M356.949 53.6421C356.683 43.2708 356.468 43.0133 347.801 42.6947C356.468 42.3778 356.682 42.1187 356.949 31.7474C357.214 42.1187 357.43 42.3762 366.096 42.6947C357.43 43.0133 357.214 43.2677 356.949 53.6421Z" fill="black"></path><path d="M74.2919 69.5689C81.539 65.2569 93.3186 69.5689 93.3186 69.5689C93.3186 69.5689 103.129 73.4674 107.223 69.5689" stroke="black"></path><path d="M349.122 73.3474V70.9991H350.335V73.3474H349.122Z" fill="black"></path><path d="M359.117 73.4897C358.325 73.4897 357.611 73.3395 356.976 73.039C356.358 72.7385 355.827 72.3196 355.383 71.7819C354.94 71.2442 354.598 70.6118 354.36 69.8844C354.122 69.1412 354.003 68.3426 354.003 67.4887C354.003 66.6348 354.122 65.8442 354.36 65.1168C354.598 64.3893 354.94 63.7569 355.383 63.2192C355.827 62.6815 356.358 62.2626 356.976 61.9621C357.611 61.6616 358.325 61.5114 359.117 61.5114C360.149 61.5114 361.052 61.7724 361.828 62.2942C362.622 62.8001 363.2 63.5672 363.564 64.595L362.66 64.9507C362.392 64.1127 361.947 63.4723 361.329 63.0295C360.71 62.5867 359.973 62.3653 359.117 62.3653C358.198 62.3653 357.428 62.6104 356.81 63.1006C356.191 63.575 355.732 64.1996 355.43 64.9745C355.145 65.7494 355.002 66.5874 355.002 67.4887C355.002 68.39 355.145 69.2361 355.43 70.0267C355.732 70.8016 356.191 71.4261 356.81 71.9005C357.428 72.3749 358.198 72.6121 359.117 72.6121C359.973 72.6121 360.71 72.3986 361.329 71.9717C361.947 71.5288 362.392 70.8884 362.66 70.0504L363.564 70.4062C363.2 71.4183 362.629 72.1851 361.852 72.7069C361.091 73.2288 360.18 73.4897 359.117 73.4897Z" fill="black"></path><path d="M371.319 73.4897C370.258 73.4897 369.314 73.2366 368.489 72.7307C367.666 72.2247 367.015 71.521 366.539 70.6197C366.063 69.7024 365.825 68.6588 365.825 67.4887C365.825 66.3186 366.056 65.2828 366.515 64.3815C366.991 63.4801 367.642 62.7764 368.465 62.2705C369.29 61.7645 370.242 61.5114 371.319 61.5114C372.399 61.5114 373.35 61.7645 374.173 62.2705C374.998 62.7764 375.641 63.4801 376.1 64.3815C376.561 65.2828 376.79 66.3186 376.79 67.4887C376.79 68.6588 376.552 69.6946 376.076 70.5959C375.617 71.4973 374.975 72.2088 374.15 72.7307C373.341 73.2366 372.399 73.4897 371.319 73.4897ZM371.319 72.6121C372.223 72.6121 373.008 72.3986 373.674 71.9717C374.34 71.5288 374.863 70.928 375.244 70.169C375.624 69.3941 375.814 68.5008 375.814 67.4887C375.814 66.4766 375.624 65.5912 375.244 64.8321C374.863 64.0573 374.333 63.4564 373.65 63.0295C372.984 62.6025 372.209 62.3891 371.319 62.3891C370.416 62.3891 369.623 62.6025 368.941 63.0295C368.275 63.4564 367.752 64.0573 367.371 64.8321C367.007 65.5912 366.824 66.4766 366.824 67.4887C366.824 68.5008 367.007 69.3941 367.371 70.169C367.752 70.928 368.275 71.5288 368.941 71.9717C369.623 72.3986 370.416 72.6121 371.319 72.6121Z" fill="black"></path><path d="M380.216 73.3474V61.6538H381.191V64.6424H381.025C381.151 64.1206 381.334 63.6621 381.572 63.2667C381.81 62.8713 382.086 62.5472 382.404 62.2942C382.721 62.0254 383.078 61.8276 383.475 61.7012C383.87 61.5748 384.291 61.5114 384.735 61.5114C385.416 61.5114 386.01 61.6379 386.519 61.891C387.026 62.144 387.437 62.5392 387.756 63.0769C388.089 63.5987 388.31 64.2707 388.422 65.0931L387.922 65.1168C388.112 64.3419 388.381 63.6858 388.731 63.1481C389.095 62.6104 389.539 62.2071 390.063 61.9384C390.6 61.6538 391.219 61.5114 391.918 61.5114C392.853 61.5114 393.59 61.7249 394.13 62.1519C394.684 62.5788 395.088 63.1718 395.343 63.9308C395.595 64.674 395.723 65.5279 395.723 66.4925V73.3474H394.724V66.706C394.724 65.8362 394.629 65.0772 394.439 64.4289C394.249 63.7806 393.93 63.2745 393.487 62.9109C393.059 62.5472 392.465 62.3653 391.704 62.3653C391.1 62.3653 390.553 62.5314 390.063 62.8634C389.57 63.1955 389.173 63.7095 388.873 64.4052C388.588 65.0852 388.445 65.9469 388.445 66.9906V73.3474H387.47V66.4688C387.47 65.0615 387.216 64.0257 386.709 63.3615C386.201 62.6974 385.456 62.3653 384.474 62.3653C383.87 62.3653 383.323 62.5392 382.832 62.8872C382.34 63.2351 381.943 63.7726 381.643 64.5001C381.358 65.2275 381.215 66.1683 381.215 67.3227V73.3474H380.216Z" fill="black"></path></svg> 