<?xml version="1.0" encoding="UTF-8"?> <svg xmlns="http://www.w3.org/2000/svg" width="397" height="106" viewBox="0 0 397 106" fill="none"><path d="M101.497 61.7887C100.123 61.7887 99.3381 60.7274 99.3381 59.4514V47.3617C97.2076 55.6229 91.4347 62.1379 84.6308 62.1379C79.5451 62.1379 75.0093 59.1155 75.0093 53.3394C75.0093 46.3542 82.2253 43.7349 90.4037 41.5184L99.3381 39.1675C98.9945 32.6526 95.5581 29.6303 89.7166 29.6303C85.5929 29.6303 81.607 31.5109 78.1706 35.608L77.5521 35.0706C81.4694 30.3019 86.4864 27.4138 92.4656 27.4138C100.781 27.4138 104.63 31.9139 104.63 39.5035V52.9364C104.63 58.4438 105.81 60.3917 107.94 60.996V61.7887H101.497ZM80.1637 51.4588C80.1637 55.8245 83.2563 58.1752 87.1736 58.1752C94.5272 58.1752 99.2693 49.108 99.3381 42.0557V40.0408L90.6787 42.3243C85.5929 43.7349 80.0949 45.9512 80.1637 51.4588Z" fill="white"></path><path d="M117.087 72.3724V71.232C119.722 70.4425 120.6 68.4248 120.6 61.2315V22.1065C120.6 14.9131 119.722 12.8954 117.087 12.1059V10.9655H137.636C151.16 10.9655 156.692 15.4394 156.692 22.5451C156.692 28.5103 152.828 33.9492 142.817 35.7914C157.131 36.4932 163.454 43.5989 163.542 52.1959C163.718 62.021 156.341 72.3724 135.002 72.3724H117.087ZM127.801 63.4245C127.801 69.7407 128.591 71.0566 132.367 71.0566H135.792C150.106 71.0566 155.551 64.1263 155.551 54.389C155.551 44.3007 149.93 36.9319 136.758 36.9319H127.801V63.4245ZM127.801 35.616H135.968C144.662 35.616 148.701 30.528 148.701 24.1241C148.701 16.843 143.52 12.2814 134.475 12.2814H127.801V35.616Z" fill="white"></path><path d="M104.281 10.9655H117.087V12.1078H104.281V10.9655Z" fill="white"></path><path d="M103.915 21.5655C103.65 12.0427 103.433 11.8063 94.7673 11.5138C103.433 11.2227 103.649 10.9848 103.915 1.46204C104.18 10.9848 104.396 11.2213 113.062 11.5138C104.396 11.8063 104.181 12.0398 103.915 21.5655Z" fill="white"></path><path d="M201.797 72.1488C200.14 72.1488 199.311 71.2129 199.311 69.5959V54.2765C196.744 64.7446 189.79 73 181.592 73C175.465 73 170 69.1703 170 61.8511C170 53 178.694 49.6807 188.547 46.8723L199.311 43.8935C198.899 35.6384 194.758 31.8084 187.721 31.8084C182.751 31.8084 177.949 34.1915 173.809 39.383L173.064 38.7022C177.783 32.6596 183.828 29 191.031 29C201.051 29 205.687 34.7022 205.687 44.3191V61.3405C205.687 68.3191 206.433 70.2766 209 71.0425V72.1488H201.797ZM176.21 59.468C176.21 65.0001 179.936 67.9786 184.657 67.9786C193.517 67.9786 199.231 56.4892 199.311 47.5531V45.0001L188.878 47.8936C182.751 49.6807 176.127 52.4894 176.21 59.468Z" fill="white"></path><path d="M224.706 104.246C218.032 104.246 210.392 101.351 210.392 93.4555C210.392 87.9288 214.87 83.4549 221.983 79.1564C218.032 78.1915 215.573 76.3492 215.573 72.5771C215.573 69.3313 218.471 67.1382 221.983 64.8574C217.593 62.5766 214.256 58.5412 214.256 52.0497C214.256 42.8386 222.598 35.4698 231.643 35.4698C233.751 35.4698 236.034 35.733 238.054 36.347C238.932 35.2066 239.986 34.0662 241.127 33.189C243.762 30.8204 246.923 29.2414 251.138 29.2414C253.86 29.2414 255.705 30.0309 255.705 31.3468C255.705 32.8381 253.86 35.8207 250.699 35.8207C248.504 35.8207 245.957 35.0312 242.005 33.803C241.039 34.5048 240.073 35.5575 239.195 36.7857C244.552 38.7156 248.943 43.0141 248.943 50.5583C248.943 60.6466 238.844 67.0505 231.643 67.0505C228.921 67.0505 225.847 66.5241 223.125 65.3837C221.193 66.6996 219.964 67.5768 219.964 69.2436C220.051 71.6121 222.949 73.0157 229.623 73.3666L240.688 74.0684C249.558 74.5948 254.739 75.8229 254.739 82.6654C254.739 92.6659 239.195 104.246 224.706 104.246ZM216.275 90.2097C216.275 96.5258 221.544 100.298 229.711 100.298C240.952 100.298 251.314 93.28 251.314 86.3498C251.314 82.2268 247.889 80.9986 240.6 80.56L228.306 79.9459C226.55 79.8582 224.881 79.6828 223.301 79.4196C218.207 82.8408 216.275 86.4375 216.275 90.2097ZM220.666 48.1898C220.666 55.8218 225.233 65.6469 233.312 65.6469C239.81 65.6469 242.62 60.4712 242.62 54.5059C242.62 46.6108 237.527 36.347 229.536 36.7857C223.301 37.0488 220.666 42.0491 220.666 48.1898Z" fill="white"></path><path d="M274.907 74.6825C265.686 74.6825 261.471 68.805 261.471 58.7167V42.4877C261.471 36.347 260.33 35.4698 257.958 34.4171V33.4521L267.53 29.2414L268.321 29.8554V57.1377C268.321 67.1382 271.131 71.6121 278.156 71.6121C283.337 71.6121 288.079 68.3663 292.031 64.1556V42.4877C292.031 36.347 290.889 35.4698 288.518 34.4171V33.4521L298.09 29.2414L298.881 29.8554V62.6643C298.881 69.8577 299.671 71.8753 302.393 72.6648V73.8052H294.929C292.997 73.8052 292.031 72.8403 292.031 70.2963V65.8223C287.552 70.4717 281.493 74.6825 274.907 74.6825Z" fill="white"></path><path d="M326.25 74.5948C335.91 74.5948 347.062 67.5768 347.062 53.1023C347.062 38.8033 336.261 29.2414 323.967 29.2414C312.902 29.2414 306.491 36.4348 306.228 44.7686H340.564C340.739 46.0844 340.827 47.4003 340.827 48.8039C340.827 60.8221 333.363 69.0681 321.947 69.0681C315.185 69.0681 310.355 65.9978 306.316 61.4361L305.525 62.2257C310.004 68.3663 316.854 74.5948 326.25 74.5948ZM340.3 43.6281H313.253C314.131 37.7506 318.873 30.8204 326.865 30.8204C334.329 30.7327 338.895 36.2593 340.3 43.6281Z" fill="white"></path><path d="M357.666 43.6428H340.286V44.7576H357.666V43.6428Z" fill="white"></path><path d="M2.56141 73.1034V71.963C5.2837 71.1735 6.07404 69.1559 6.07404 61.9625V26.3465C6.07404 16.3459 4.22991 13.8897 0.717285 12.8369V11.6965H11.343L34.2629 49.5057L56.7437 11.6965H66.6669V12.8369C63.1542 13.8897 61.3101 16.3459 61.3101 26.3465V61.9625C61.3101 69.1559 61.288 67.6207 61.3101 71.963L61.288 73.1034H54.1092V71.963C54.1092 69.4483 54.1092 69.1559 54.1092 61.9625V18.8022L31.8041 56.4359H30.1356L7.65472 19.504V58.4535C7.65472 68.4541 9.7623 70.9103 13.6262 71.963V73.1034H2.56141Z" fill="white"></path><path d="M67.6915 95.9483C58.1024 96.4605 53.9597 89.6796 54.1068 72.5161L61.2982 72.1317C61.2149 87.8872 58.1024 96.4605 67.6915 95.9483C77.2804 95.436 73.3836 79.7204 69.9579 79.9035C66.5324 80.0865 72.4517 93.062 67.1002 90.6923C61.7488 88.3225 62.0801 80.3244 69.9579 79.9035C84.3412 79.135 77.2804 95.436 67.6915 95.9483Z" fill="white"></path><path d="M357.666 55.1931C357.401 44.8046 357.185 44.5467 348.518 44.2276C357.185 43.9101 357.401 43.6506 357.666 33.2621C357.931 43.6506 358.147 43.9085 366.813 44.2276C358.147 44.5467 357.933 44.8014 357.666 55.1931Z" fill="white"></path><path d="M75.0093 71.1463C82.2564 66.8272 94.036 71.1463 94.036 71.1463C94.036 71.1463 103.846 75.0513 107.94 71.1463" stroke="white"></path><path d="M349.839 74.931V72.5789H351.052V74.931H349.839Z" fill="white"></path><path d="M359.836 75.0736C359.042 75.0736 358.328 74.9232 357.695 74.6222C357.077 74.3212 356.544 73.9016 356.102 73.363C355.657 72.8244 355.317 72.1909 355.079 71.4623C354.841 70.7179 354.722 69.918 354.722 69.0627C354.722 68.2073 354.841 67.4155 355.079 66.6868C355.317 65.9581 355.657 65.3247 356.102 64.7861C356.544 64.2475 357.077 63.8279 357.695 63.5269C358.328 63.2259 359.042 63.0755 359.836 63.0755C360.866 63.0755 361.769 63.3368 362.547 63.8595C363.339 64.3663 363.917 65.1346 364.283 66.1641L363.379 66.5205C363.109 65.6811 362.666 65.0396 362.048 64.596C361.429 64.1525 360.692 63.9308 359.836 63.9308C358.915 63.9308 358.147 64.1762 357.529 64.6673C356.91 65.1425 356.449 65.7681 356.149 66.5442C355.864 67.3204 355.721 68.1598 355.721 69.0627C355.721 69.9655 355.864 70.8129 356.149 71.6048C356.449 72.381 356.91 73.0066 357.529 73.4818C358.147 73.9569 358.915 74.1945 359.836 74.1945C360.692 74.1945 361.429 73.9807 362.048 73.553C362.666 73.1095 363.109 72.468 363.379 71.6286L364.283 71.985C363.917 72.9987 363.347 73.7669 362.571 74.2896C361.81 74.8122 360.897 75.0736 359.836 75.0736Z" fill="white"></path><path d="M372.037 75.0736C370.975 75.0736 370.031 74.8201 369.206 74.3133C368.383 73.8065 367.732 73.1016 367.256 72.1988C366.78 71.2801 366.543 70.2347 366.543 69.0627C366.543 67.8906 366.773 66.8531 367.232 65.9503C367.708 65.0474 368.359 64.3426 369.183 63.8358C370.008 63.329 370.959 63.0755 372.037 63.0755C373.116 63.0755 374.067 63.329 374.891 63.8358C375.716 64.3426 376.358 65.0474 376.817 65.9503C377.278 66.8531 377.507 67.8906 377.507 69.0627C377.507 70.2347 377.269 71.2722 376.793 72.175C376.334 73.0779 375.692 73.7906 374.867 74.3133C374.058 74.8201 373.116 75.0736 372.037 75.0736ZM372.037 74.1945C372.94 74.1945 373.725 73.9807 374.391 73.553C375.057 73.1095 375.58 72.5077 375.961 71.7474C376.341 70.9712 376.532 70.0764 376.532 69.0627C376.532 68.0489 376.341 67.162 375.961 66.4017C375.58 65.6255 375.05 65.0237 374.367 64.596C373.701 64.1684 372.926 63.9546 372.037 63.9546C371.133 63.9546 370.341 64.1684 369.658 64.596C368.992 65.0237 368.469 65.6255 368.089 66.4017C367.724 67.162 367.541 68.0489 367.541 69.0627C367.541 70.0764 367.724 70.9712 368.089 71.7474C368.469 72.5077 368.992 73.1095 369.658 73.553C370.341 73.9807 371.133 74.1945 372.037 74.1945Z" fill="white"></path><path d="M380.933 74.931V63.218H381.908V66.2116H381.742C381.868 65.6889 382.051 65.2297 382.289 64.8336C382.527 64.4376 382.805 64.113 383.121 63.8595C383.438 63.5903 383.795 63.3922 384.192 63.2656C384.589 63.1389 385.008 63.0755 385.452 63.0755C386.135 63.0755 386.729 63.2021 387.236 63.4556C387.743 63.7091 388.156 64.105 388.473 64.6436C388.806 65.1662 389.027 65.8393 389.139 66.663L388.639 66.6868C388.829 65.9106 389.098 65.2534 389.448 64.7148C389.812 64.1762 390.256 63.7723 390.78 63.5031C391.319 63.218 391.938 63.0755 392.635 63.0755C393.57 63.0755 394.307 63.2893 394.847 63.717C395.401 64.1446 395.805 64.7386 396.06 65.4989C396.314 66.2432 396.44 67.0985 396.44 68.0648V74.931H395.441V68.2786C395.441 67.4074 395.346 66.6471 395.156 65.9978C394.966 65.3485 394.649 64.8415 394.204 64.4772C393.776 64.113 393.182 63.9308 392.421 63.9308C391.819 63.9308 391.272 64.0971 390.78 64.4297C390.288 64.7623 389.892 65.2772 389.591 65.974C389.305 66.6552 389.162 67.5183 389.162 68.5637V74.931H388.187V68.041C388.187 66.6314 387.933 65.5939 387.426 64.9287C386.919 64.2634 386.173 63.9308 385.191 63.9308C384.589 63.9308 384.042 64.105 383.55 64.4535C383.057 64.802 382.662 65.3404 382.36 66.0691C382.075 66.7977 381.932 67.74 381.932 68.8963V74.931H380.933Z" fill="white"></path></svg> 