<svg xmlns="http://www.w3.org/2000/svg" xmlns:xlink="http://www.w3.org/1999/xlink" width="145.333" height="73.871" viewBox="0 0 145.333 73.871">
  <defs>
    <clipPath id="clip-path">
      <rect id="Rectangle_10" data-name="Rectangle 10" width="145.333" height="73.871" fill="none"/>
    </clipPath>
  </defs>
  <g id="Groupe_39" data-name="Groupe 39" transform="translate(0 0)">
    <g id="Groupe_38" data-name="Groupe 38" transform="translate(0 0)" clip-path="url(#clip-path)">
      <path id="Tracé_5" data-name="Tracé 5" d="M6.5,41.16c4.552,0,6.1,2.7,6.1,5.615,0,4.267-2.762,5.968-6.718,5.968H3.249v4H.089V41.16ZM5.57,50.111c2.519,0,3.716-1.26,3.716-3.094,0-1.614-.84-3.116-3.293-3.116H3.252v6.211Z" transform="translate(-0.016 -7.172)" fill="#fff"/>
      <path id="Tracé_6" data-name="Tracé 6" d="M24.6,52.719a5.133,5.133,0,0,1-.6.022H21.1v4h-3.16V41.16h6.874c4.552,0,6.1,2.7,6.1,5.615,0,2.675-1.106,4.443-3.16,5.327l3.625,4.642H27.6ZM21.1,50.134h2.784c2.52,0,3.716-1.282,3.716-3.116,0-1.614-.84-3.116-3.293-3.116H21.1Z" transform="translate(-3.126 -7.172)" fill="#fff"/>
      <path id="Tracé_7" data-name="Tracé 7" d="M52.563,48.928a8.295,8.295,0,1,1-8.626-7.95c.112,0,.225-.007.338-.007a8.113,8.113,0,0,1,8.287,7.935v.022m-3.227,0a5.05,5.05,0,1,0-5.106,5h.045a5.046,5.046,0,0,0,5.061-5" transform="translate(-6.269 -7.138)" fill="#fff"/>
      <path id="Tracé_8" data-name="Tracé 8" d="M75.254,41.16V56.741H72.071V48.122l-4.818,6.762-4.84-6.762v8.619H59.253V41.16H60.8l6.454,8.929,6.453-8.929Z" transform="translate(-10.324 -7.172)" fill="#fff"/>
      <path id="Tracé_9" data-name="Tracé 9" d="M98.34,48.928a8.3,8.3,0,1,1-8.628-7.95c.113,0,.226-.007.339-.007A8.112,8.112,0,0,1,98.339,48.9v.024m-3.227,0a5.05,5.05,0,1,0-5.106,5h.045a5.046,5.046,0,0,0,5.061-5" transform="translate(-14.245 -7.138)" fill="#fff"/>
      <path id="Tracé_10" data-name="Tracé 10" d="M116.318,43.9h-4.974V56.74h-3.183V43.9h-4.955V41.159h13.107Z" transform="translate(-17.982 -7.172)" fill="#fff"/>
      <path id="Tracé_11" data-name="Tracé 11" d="M133.855,54V56.74H121.9V41.16H133.39V43.9h-8.423v3.957h7.054v2.652h-7.05V54Z" transform="translate(-21.239 -7.172)" fill="#fff"/>
      <path id="Tracé_12" data-name="Tracé 12" d="M153.09,50.487c0,3.581-2.387,6.432-6.918,6.432-4.509,0-6.873-2.829-6.873-6.432V41.16h3.094v8.505c0,2.94,1.3,4.332,3.779,4.332,2.52,0,3.823-1.415,3.823-4.332V41.16h3.094Z" transform="translate(-24.271 -7.172)" fill="#fff"/>
      <path id="Tracé_13" data-name="Tracé 13" d="M166.377,52.719a5.133,5.133,0,0,1-.6.022h-2.9v4h-3.16V41.16H166.6c4.552,0,6.1,2.7,6.1,5.615,0,2.675-1.106,4.443-3.16,5.327l3.624,4.642h-3.779Zm-3.492-2.585h2.785c2.52,0,3.716-1.282,3.716-3.116,0-1.614-.84-3.116-3.294-3.116h-3.2Z" transform="translate(-27.829 -7.172)" fill="#fff"/>
      <path id="Tracé_14" data-name="Tracé 14" d="M8.017,83.381v3.145a5.16,5.16,0,0,1-3.524,1.1C1.679,87.627,0,86,0,83.323a4.039,4.039,0,0,1,4.41-4.316,4.779,4.779,0,0,1,3.3,1.194l-.639.7a3.9,3.9,0,0,0-2.66-.958A3.131,3.131,0,0,0,1.029,82.8,3.639,3.639,0,0,0,4.5,86.7a4.288,4.288,0,0,0,2.542-.661V84.244H4.208v-.863Z" transform="translate(0 -13.766)" fill="#fff"/>
      <path id="Tracé_15" data-name="Tracé 15" d="M16.888,87.511l-1.939-2.7c-.154.012-.32.012-.486.012h-1.95V87.51H11.5V79.17h3.287c2,0,3.063.982,3.063,2.814a2.519,2.519,0,0,1-1.833,2.625l2.089,2.9Zm-.094-5.522c0-1.277-.743-1.95-2.152-1.95H12.513v3.925h1.869c1.569,0,2.412-.709,2.412-1.974" transform="translate(-2.004 -13.794)" fill="#fff"/>
      <path id="Tracé_16" data-name="Tracé 16" d="M20.659,83.32A4.112,4.112,0,0,1,25.058,79a4.311,4.311,0,0,1,.169,8.619h-.169a4.111,4.111,0,0,1-4.4-4.3m7.769,0a3.364,3.364,0,1,0-3.37,3.37,3.186,3.186,0,0,0,3.37-3.37" transform="translate(-3.598 -13.764)" fill="#fff"/>
      <path id="Tracé_17" data-name="Tracé 17" d="M33.073,84.215V79.178h.991V84c0,1.846.686,2.709,2.437,2.709s2.436-.863,2.436-2.709V79.178h.991v5.037c0,2.282-1.064,3.441-3.429,3.441S33.07,86.5,33.07,84.215" transform="translate(-5.762 -13.796)" fill="#fff"/>
      <path id="Tracé_18" data-name="Tracé 18" d="M49.974,81.991c0,1.9-1.147,2.885-3.382,2.885H44.63v2.635H43.613v-8.34h3.3c2.022,0,3.063.958,3.063,2.814m-1.052,0c0-1.289-.732-1.95-2.152-1.95H44.63v3.973h1.88c1.6,0,2.412-.685,2.412-2.022" transform="translate(-7.599 -13.795)" fill="#fff"/>
      <path id="Tracé_19" data-name="Tracé 19" d="M52.934,79.179h5.78v.863H53.925v3h4.056V83.9H53.925v2.755h5.037v.862H52.934Z" transform="translate(-9.223 -13.796)" fill="#fff"/>
      <path id="Tracé_20" data-name="Tracé 20" d="M71.981,81.991c0,1.9-1.147,2.885-3.382,2.885H66.637v2.635H65.62v-8.34h3.295c2.022,0,3.063.958,3.063,2.814m-1.052,0c0-1.289-.733-1.95-2.152-1.95h-2.14v3.973h1.88c1.6,0,2.412-.685,2.412-2.022" transform="translate(-11.433 -13.795)" fill="#fff"/>
      <path id="Tracé_21" data-name="Tracé 21" d="M74.453,83.282a4.405,4.405,0,1,1,4.506,4.3h-.107a4.112,4.112,0,0,1-4.393-3.81,3.943,3.943,0,0,1-.006-.494m7.769,0a3.364,3.364,0,1,0-3.37,3.37,3.188,3.188,0,0,0,3.37-3.37" transform="translate(-12.971 -13.725)" fill="#fff"/>
      <path id="Tracé_22" data-name="Tracé 22" d="M88.327,80.042H85.466v-.863h6.741v.863H89.345v7.471H88.327Z" transform="translate(-14.891 -13.796)" fill="#fff"/>
      <rect id="Rectangle_6" data-name="Rectangle 6" width="1.029" height="8.336" transform="translate(78.769 65.382)" fill="#fff"/>
      <path id="Tracé_23" data-name="Tracé 23" d="M99.082,79.179h5.78v.863h-4.789v3h4.061V83.9h-4.055v2.755h5.037v.862H99.088Z" transform="translate(-17.263 -13.796)" fill="#fff"/>
      <path id="Tracé_24" data-name="Tracé 24" d="M113.6,87.511l-1.939-2.7c-.154.012-.32.012-.486.012H109.22V87.51H108.2V79.17h3.287c2,0,3.063.982,3.063,2.814a2.518,2.518,0,0,1-1.832,2.625l2.092,2.9Zm-.095-5.522c0-1.277-.743-1.95-2.152-1.95H109.22v3.925h1.869c1.569,0,2.412-.709,2.412-1.974" transform="translate(-18.853 -13.794)" fill="#fff"/>
      <path id="Tracé_25" data-name="Tracé 25" d="M120.89,86.895l.378-.935a6.451,6.451,0,0,0,3.026.722c1.23,0,1.939-.508,1.939-1.431,0-.946-.851-1.194-2.282-1.486-1.785-.366-2.98-.874-2.98-2.436,0-1.336.991-2.317,2.932-2.317a7.158,7.158,0,0,1,3.039.65l-.426.874a5.776,5.776,0,0,0-2.625-.578c-1.312,0-1.892.685-1.892,1.372,0,.908.908,1.206,2.306,1.486,1.679.355,2.968.8,2.968,2.377,0,1.667-1.156,2.436-2.921,2.436a7.675,7.675,0,0,1-3.464-.733" transform="translate(-21.063 -13.767)" fill="#fff"/>
      <path id="Tracé_26" data-name="Tracé 26" d="M129.924,83.282a4.405,4.405,0,1,1,4.506,4.3h-.108a4.108,4.108,0,0,1-4.4-4.3m7.768,0a3.364,3.364,0,1,0-3.37,3.37,3.188,3.188,0,0,0,3.37-3.37" transform="translate(-22.636 -13.725)" fill="#fff"/>
      <path id="Tracé_27" data-name="Tracé 27" d="M143.8,80.042h-2.862v-.863h6.74v.863h-2.864v7.471h-1.017Z" transform="translate(-24.556 -13.796)" fill="#fff"/>
      <path id="Tracé_28" data-name="Tracé 28" d="M156.193,87.511l-1.939-2.7c-.154.012-.32.012-.486.012h-1.951V87.51H150.8V79.17h3.287c2,0,3.063.982,3.063,2.814a2.518,2.518,0,0,1-1.832,2.625l2.092,2.9Zm-.095-5.522c0-1.277-.743-1.95-2.152-1.95h-2.128v3.925h1.869c1.569,0,2.412-.709,2.412-1.974" transform="translate(-26.274 -13.794)" fill="#fff"/>
      <rect id="Rectangle_7" data-name="Rectangle 7" width="1.029" height="8.336" transform="translate(132.543 65.382)" fill="#fff"/>
      <path id="Tracé_29" data-name="Tracé 29" d="M172.5,79.177v8.34h-.991V81.582l-2.921,4.41h-.472l-2.909-4.4v5.917H164.2v-8.34h.532l3.618,5.533,3.619-5.533Z" transform="translate(-28.61 -13.795)" fill="#fff"/>
      <rect id="Rectangle_8" data-name="Rectangle 8" width="144.359" height="0.884" transform="translate(0.199 56.616)" fill="#fff"/>
      <path id="Tracé_30" data-name="Tracé 30" d="M21.4,18.811c0,5.055-4.052,8.029-10.149,8.029A20.283,20.283,0,0,1,.358,24.349l1.933-4.129a18.6,18.6,0,0,0,9.145,2.008c2.862,0,4.571-1.04,4.571-2.973,0-1.784-1.746-2.565-5.576-3.457C5.042,14.572.693,13.048.693,7.881.693,3.272,4.374,0,10.355,0A25.447,25.447,0,0,1,20.391,2.118L18.238,6.359a23.052,23.052,0,0,0-7.992-1.746C7.57,4.613,6.083,5.8,6.083,7.438c0,1.859,1.859,2.642,5.8,3.532,5.651,1.263,9.517,3.047,9.517,7.845" transform="translate(-0.062 0)" fill="#fff"/>
      <path id="Tracé_31" data-name="Tracé 31" d="M57.5,13.428a13.644,13.644,0,0,1-13.94,13.382c-7.7,0-13.941-5.985-13.941-13.382S35.867.046,43.563.046A13.644,13.644,0,0,1,57.5,13.428m-5.427,0a8.495,8.495,0,1,0-8.588,8.4h.075a8.489,8.489,0,0,0,8.513-8.4" transform="translate(-5.161 -0.008)" fill="#bf0012"/>
      <path id="Tracé_32" data-name="Tracé 32" d="M87.732,4.969H79.365v21.6H74.013V4.969H65.684V.357H87.732Z" transform="translate(-11.444 -0.062)" fill="#fff"/>
      <path id="Tracé_33" data-name="Tracé 33" d="M108.3,19.8a8.845,8.845,0,0,1-1,.037h-4.872v6.728H97.11V.357h11.561c7.657,0,10.26,4.535,10.26,9.443,0,4.5-1.86,7.472-5.316,8.959l6.1,7.807h-6.358Zm-5.874-4.349h4.684c4.238,0,6.245-2.155,6.245-5.241,0-2.714-1.413-5.242-5.538-5.242h-5.391Z" transform="translate(-16.92 -0.063)" fill="#fff"/>
      <rect id="Rectangle_9" data-name="Rectangle 9" width="5.353" height="26.207" transform="translate(106.44 0.297)" fill="#fff"/>
      <path id="Tracé_34" data-name="Tracé 34" d="M168.959.357v26.21h-5.353v-14.5l-8.1,11.375-8.14-11.375v14.5h-5.315V.357h2.6L155.5,15.375,166.355.357Z" transform="translate(-24.749 -0.062)" fill="#fff"/>
    </g>
  </g>
</svg>
