<svg xmlns="http://www.w3.org/2000/svg" width="264.667" height="48.763"><g data-name="Groupe 17"><g data-name="Groupe 15"><g fill="#fff" data-name="Groupe 14" transform="translate(0 1.296)"><path d="M22.325 47.467H3.889A3.89 3.89 0 0 1 0 43.578V3.889A3.89 3.89 0 0 1 3.889 0h18.436a3.89 3.89 0 0 1 3.889 3.889v39.756a3.97 3.97 0 0 1-3.889 3.821M3.889 1.341a2.547 2.547 0 0 0-2.548 2.548v39.756a2.547 2.547 0 0 0 2.548 2.548h18.436a2.547 2.547 0 0 0 2.548-2.548V3.889a2.547 2.547 0 0 0-2.548-2.548Z" data-name="Tracé 15"/><path d="M13.074 42.84a2.547 2.547 0 0 1-2.548-2.547 2.49 2.49 0 0 1 2.548-2.481 2.547 2.547 0 0 1 2.552 2.548 2.49 2.49 0 0 1-2.548 2.481" data-name="Tracé 16"/><path d="M19.443 6.034H6.701a.603.603 0 0 1 0-1.207h12.742a.604.604 0 0 1 0 1.207" data-name="Tracé 17"/></g></g><g fill="#fff" data-name="Groupe 16"><text data-name="+33 (0)2 31 86 14 49" font-family="Ubuntu-Bold, Ubuntu" font-size="24" font-weight="700" transform="translate(40.667 22)"><tspan x="0" y="0">+33 (0)2 31 86 14 49</tspan></text><text data-name="Prix d’un appel local" font-family="SegoeUI-Light, Segoe UI" font-size="12" font-weight="300" transform="translate(40.667 44)"><tspan x="0" y="0">Prix d’un appel local</tspan></text></g></g></svg>