<svg id="Groupe_1" data-name="Groupe 1" xmlns="http://www.w3.org/2000/svg" xmlns:xlink="http://www.w3.org/1999/xlink" width="211.091" height="57.815" viewBox="0 0 211.091 57.815">
  <defs>
    <clipPath id="clip-path">
      <rect id="Rectangle_30" data-name="Rectangle 30" width="211.091" height="57.815" fill="none"/>
    </clipPath>
    <clipPath id="clip-path-2">
      <rect id="Rectangle_35" data-name="Rectangle 35" width="210.852" height="57.815" fill="none"/>
    </clipPath>
    <clipPath id="clip-path-3">
      <path id="Tracé_386" data-name="Tracé 386" d="M44.4,64.878A20.478,20.478,0,1,0,64.878,44.4,20.478,20.478,0,0,0,44.4,64.878" transform="translate(-44.4 -44.4)" fill="none"/>
    </clipPath>
  </defs>
  <rect id="Rectangle_29" data-name="Rectangle 29" width="3.432" height="19.592" transform="translate(90.345 19.52)" fill="#fff"/>
  <path id="Tracé_364" data-name="Tracé 364" d="M310.31,102.82h3.656l5.946,9.3,5.944-9.3h3.656v19.592h-3.429V108.4l-6.168,9.209H319.8l-6.117-9.154v13.955H310.31Z" transform="translate(-257.696 -83.3)" fill="#fff"/>
  <path id="Tracé_365" data-name="Tracé 365" d="M436.47,122.4l-9.382-9.521,10.071-10.071H432.3l-9.853,9.855,9.6,9.737Z" transform="translate(-348.547 -83.292)" fill="#fff"/>
  <path id="Tracé_366" data-name="Tracé 366" d="M564.71,103.647v7.235h-.772v-5.376l-2.348,5.376H561l-2.368-5.335.01,5.335h-.772v-7.235h.691l2.744,6.24,2.713-6.24Z" transform="translate(-458.259 -83.97)" fill="#fff"/>
  <path id="Tracé_367" data-name="Tracé 367" d="M611.922,109.022h-3.78l-.8,1.86h-.864l3.181-7.236h.732l3.181,7.236h-.854Zm-.295-.691-1.6-3.72-1.6,3.72Z" transform="translate(-497.636 -83.97)" fill="#fff"/>
  <g id="Groupe_28" data-name="Groupe 28" transform="translate(0)">
    <g id="Groupe_27" data-name="Groupe 27" clip-path="url(#clip-path)">
      <path id="Tracé_368" data-name="Tracé 368" d="M662.1,110.882h-.884l-.894-2.408a1.036,1.036,0,0,0-.452-.6,1.787,1.787,0,0,0-.818-.152h-1.809v3.16h-.823v-7.235h2.876a2.742,2.742,0,0,1,1.794.518,1.83,1.83,0,0,1,.625,1.494,1.9,1.9,0,0,1-.371,1.194,2.007,2.007,0,0,1-1.072.686.974.974,0,0,1,.539.269,1.693,1.693,0,0,1,.376.625Zm-2.876-3.852q1.667,0,1.666-1.362a1.214,1.214,0,0,0-.406-1,1.983,1.983,0,0,0-1.26-.331h-1.982v2.693Z" transform="translate(-538.099 -83.97)" fill="#fff"/>
      <path id="Tracé_369" data-name="Tracé 369" d="M704.983,110.882l-3.73-3.445v3.445h-.833v-7.235h.833v3.323l3.557-3.323h1.067l-3.78,3.526,3.973,3.709Z" transform="translate(-573.747 -83.97)" fill="#fff"/>
    </g>
  </g>
  <path id="Tracé_370" data-name="Tracé 370" d="M742.12,103.647h4.573v.691h-3.75v2.52h3.547v.7h-3.547v2.632h3.75v.691H742.12Z" transform="translate(-607.53 -83.97)" fill="#fff"/>
  <path id="Tracé_371" data-name="Tracé 371" d="M778.633,104.358h-2.52v-.711H782v.711h-2.52v6.524h-.843Z" transform="translate(-635.07 -83.97)" fill="#fff"/>
  <rect id="Rectangle_31" data-name="Rectangle 31" width="0.833" height="7.235" transform="translate(149.254 19.676)" fill="#fff"/>
  <path id="Tracé_372" data-name="Tracé 372" d="M845.883,103.647v7.235h-.65l-4.37-5.823v5.823h-.783v-7.235h.64l4.37,5.823v-5.823Z" transform="translate(-686.894 -83.97)" fill="#fff"/>
  <g id="Groupe_30" data-name="Groupe 30" transform="translate(0.239)">
    <g id="Groupe_29" data-name="Groupe 29" clip-path="url(#clip-path-2)">
      <path id="Tracé_373" data-name="Tracé 373" d="M891.513,106.764v3.354a4.212,4.212,0,0,1-1.118.361,7.183,7.183,0,0,1-1.4.137,3.719,3.719,0,0,1-1.86-.442,2.9,2.9,0,0,1-1.194-1.275,4.454,4.454,0,0,1-.412-1.992,4.4,4.4,0,0,1,.412-1.976,2.933,2.933,0,0,1,1.179-1.27,3.572,3.572,0,0,1,1.814-.442,4.1,4.1,0,0,1,1.4.229,2.923,2.923,0,0,1,1.093.686l-.325.64a3.762,3.762,0,0,0-1.032-.645,3.073,3.073,0,0,0-1.133-.2,2.342,2.342,0,0,0-1.885.767,4.067,4.067,0,0,0,.015,4.451,2.453,2.453,0,0,0,1.951.767,5.335,5.335,0,0,0,1.738-.285v-2.205h-1.8v-.66Z" transform="translate(-723.951 -83.622)" fill="#fff"/>
      <path id="Tracé_374" data-name="Tracé 374" d="M562.369,174.34l-.447.569a4.824,4.824,0,0,1-1.423-.965,3.1,3.1,0,0,1-.986.7,2.9,2.9,0,0,1-1.189.244,2.932,2.932,0,0,1-1.22-.239,1.912,1.912,0,0,1-.818-.666A1.715,1.715,0,0,1,556,173a1.9,1.9,0,0,1,.4-1.174,4.464,4.464,0,0,1,1.28-1.052,4.861,4.861,0,0,1-.666-.92,1.675,1.675,0,0,1-.188-.767,1.452,1.452,0,0,1,.488-1.143,1.875,1.875,0,0,1,1.291-.432,1.718,1.718,0,0,1,1.189.391,1.354,1.354,0,0,1,.437,1.062,1.553,1.553,0,0,1-.325.965,4.575,4.575,0,0,1-1.148.955l1.707,1.921a5.086,5.086,0,0,0,.508-2.236h.732a6.39,6.39,0,0,1-.213,1.529,4.643,4.643,0,0,1-.539,1.255,4.3,4.3,0,0,0,1.423.986m-2.327-.9-1.931-2.164a3.665,3.665,0,0,0-1.006.828,1.424,1.424,0,0,0-.295.879,1.1,1.1,0,0,0,.417.9,1.73,1.73,0,0,0,1.118.335,2.2,2.2,0,0,0,1.7-.783m-2.154-5.035a.9.9,0,0,0-.274.686,1.162,1.162,0,0,0,.142.559,4.591,4.591,0,0,0,.559.742,4,4,0,0,0,.925-.722,1.011,1.011,0,0,0,.254-.66.836.836,0,0,0-.244-.625.877.877,0,0,0-.64-.239,1.008,1.008,0,0,0-.721.259" transform="translate(-456.98 -135.71)" fill="#fff"/>
      <path id="Tracé_375" data-name="Tracé 375" d="M621.694,174.409a2.941,2.941,0,0,1-1.164-1.285,4.489,4.489,0,0,1-.407-1.977,4.422,4.422,0,0,1,.407-1.966,2.955,2.955,0,0,1,1.164-1.275,3.444,3.444,0,0,1,1.783-.447,3.981,3.981,0,0,1,1.377.229,2.939,2.939,0,0,1,1.083.686l-.315.64a3.522,3.522,0,0,0-1.021-.64,3.085,3.085,0,0,0-1.113-.193,2.287,2.287,0,0,0-1.845.772,3.3,3.3,0,0,0-.656,2.195,3.353,3.353,0,0,0,.651,2.21,2.276,2.276,0,0,0,1.849.778,3.08,3.08,0,0,0,1.113-.193,3.522,3.522,0,0,0,1.021-.64l.315.64a2.934,2.934,0,0,1-1.083.686,3.981,3.981,0,0,1-1.377.229,3.442,3.442,0,0,1-1.783-.447" transform="translate(-508.933 -135.667)" fill="#fff"/>
      <path id="Tracé_376" data-name="Tracé 376" d="M670.716,175.122h-.884l-.894-2.408a1.036,1.036,0,0,0-.452-.6,1.787,1.787,0,0,0-.818-.152h-1.809v3.16h-.823v-7.235h2.876a2.742,2.742,0,0,1,1.793.518,1.83,1.83,0,0,1,.625,1.494,1.9,1.9,0,0,1-.371,1.194,2.006,2.006,0,0,1-1.072.686.973.973,0,0,1,.539.269,1.692,1.692,0,0,1,.376.625Zm-2.876-3.852q1.667,0,1.666-1.362a1.214,1.214,0,0,0-.406-1,1.982,1.982,0,0,0-1.26-.331h-1.982v2.693Z" transform="translate(-545.319 -136.015)" fill="#fff"/>
      <path id="Tracé_377" data-name="Tracé 377" d="M715.877,167.887v7.235H715.1v-5.376l-2.348,5.376h-.589l-2.368-5.335.01,5.335h-.772v-7.235h.691l2.744,6.24,2.713-6.24Z" transform="translate(-580.967 -136.015)" fill="#fff"/>
      <rect id="Rectangle_32" data-name="Rectangle 32" width="0.833" height="7.235" transform="translate(141.972 31.872)" fill="#fff"/>
      <path id="Tracé_378" data-name="Tracé 378" d="M809.821,167.887v7.235h-.772v-5.376l-2.348,5.376h-.59l-2.368-5.335.01,5.335h-.772v-7.235h.691l2.744,6.24,2.713-6.24Z" transform="translate(-657.077 -136.015)" fill="#fff"/>
      <path id="Tracé_379" data-name="Tracé 379" d="M862.173,167.887v7.235H861.4v-5.376l-2.348,5.376h-.589l-2.368-5.335.01,5.335h-.772v-7.235h.691l2.744,6.24,2.713-6.24Z" transform="translate(-699.491 -136.015)" fill="#fff"/>
      <path id="Tracé_380" data-name="Tracé 380" d="M907.839,174.409a2.941,2.941,0,0,1-1.143-1.286,4.506,4.506,0,0,1-.4-1.966,4.554,4.554,0,0,1,.4-1.972,2.916,2.916,0,0,1,1.138-1.28,3.679,3.679,0,0,1,3.516,0,2.917,2.917,0,0,1,1.138,1.28,5.047,5.047,0,0,1,0,3.933,2.979,2.979,0,0,1-1.143,1.285,3.621,3.621,0,0,1-3.5.005m3.537-1.047a4.15,4.15,0,0,0,.005-4.421,2.469,2.469,0,0,0-3.592.005,3.371,3.371,0,0,0-.64,2.2,3.411,3.411,0,0,0,.64,2.215,2.447,2.447,0,0,0,3.587,0" transform="translate(-740.776 -135.667)" fill="#fff"/>
      <path id="Tracé_381" data-name="Tracé 381" d="M960.987,172.028a1.8,1.8,0,0,1,.346,1.123,1.774,1.774,0,0,1-.63,1.458,2.746,2.746,0,0,1-1.778.513h-3.008v-7.235h2.906a2.688,2.688,0,0,1,1.723.493,1.866,1.866,0,0,1,.315,2.4,1.756,1.756,0,0,1-.838.625,1.771,1.771,0,0,1,.965.625m-4.248-.93h1.951a1.971,1.971,0,0,0,1.23-.325,1.138,1.138,0,0,0,.417-.955q0-1.24-1.646-1.24h-1.951Zm3.369,3.013a1.179,1.179,0,0,0,.4-.981q0-1.331-1.656-1.331h-2.114v2.632h2.114a2,2,0,0,0,1.255-.32" transform="translate(-780.977 -136.015)" fill="#fff"/>
      <rect id="Rectangle_33" data-name="Rectangle 33" width="0.833" height="7.235" transform="translate(183.17 31.872)" fill="#fff"/>
      <path id="Tracé_382" data-name="Tracé 382" d="M1019.991,167.887h.833v6.524h3.628v.711h-4.461Z" transform="translate(-832.888 -136.015)" fill="#fff"/>
      <rect id="Rectangle_34" data-name="Rectangle 34" width="0.833" height="7.235" transform="translate(193.952 31.872)" fill="#fff"/>
      <path id="Tracé_383" data-name="Tracé 383" d="M1076.786,167.887h4.573v.691h-3.75v2.52h3.547v.7h-3.547v2.632h3.75v.691h-4.573Z" transform="translate(-878.901 -136.015)" fill="#fff"/>
      <path id="Tracé_384" data-name="Tracé 384" d="M1120.848,175.122h-.884l-.894-2.408a1.036,1.036,0,0,0-.452-.6,1.787,1.787,0,0,0-.818-.152h-1.809v3.16h-.823v-7.235h2.876a2.742,2.742,0,0,1,1.793.518,1.83,1.83,0,0,1,.625,1.494,1.9,1.9,0,0,1-.371,1.194,2.007,2.007,0,0,1-1.072.686.973.973,0,0,1,.538.269,1.692,1.692,0,0,1,.376.625Zm-2.876-3.852q1.667,0,1.667-1.362a1.214,1.214,0,0,0-.406-1,1.983,1.983,0,0,0-1.26-.331h-1.982v2.693Z" transform="translate(-909.996 -136.015)" fill="#fff"/>
    </g>
  </g>
  <g id="Groupe_32" data-name="Groupe 32" transform="translate(2.133 8.429)">
    <g id="Groupe_31" data-name="Groupe 31" clip-path="url(#clip-path-3)">
      <path id="Tracé_385" data-name="Tracé 385" d="M57.815,24.345V23.161H42.79L53.422,12.53l-.837-.837L34.665,29.612V26.493l.023-.025-.023-.023V24L49.777,8.885l-.847-.835L34.656,22.324V16.708L46.122,5.242,45.285,4.4,34.654,15.036V0H33.469V25.264L29.5,21.31V0H28.317V20.123l-3.972-3.949V0H23.161V15L12.53,4.406l-.835.835L23.161,16.666v.019h.019l4.9,4.881-1.591,1.595H24.021L8.9,8.038l-.837.839L22.343,23.161H16.708L5.242,11.694l-.837.837L15.036,23.163H0v1.185H25.306l-3.968,3.968H0V29.5H20.159L16.2,33.471H0v1.185H15.015L4.4,45.287l.839.837L23.161,28.173v5.635L8.049,48.924l.837.837L23.161,35.483v5.625L11.694,52.575l.837.847L23.163,42.79V57.467h1.185V34.656h2.179l1.788,1.788V57.815H29.5V37.629l3.972,3.97V57.815h1.185V42.79L45.289,53.422l.837-.837L28.207,34.665h5.6l15.14,15.1.835-.839-14.3-14.265h5.631L52.579,46.132l.837-.837L42.785,34.663H57.816V33.479H34.656V31.3l1.788-1.788H57.815V28.323H37.629l3.97-3.97ZM24.345,33.471V26.984L28.919,22.4l4.556,4.533v6.534Z" transform="translate(-8.429 -8.429)" fill="#fff"/>
    </g>
  </g>
</svg>
